# xmcd
#
# Track frame offsets:
#	150
#	9612
#	22862
#	34899
#	47662
#	57902
#	69587
#	81362
#	96137
#	107724
#	120699
#	131364
#	143993
#	154758
#	167220
#	179481
#	192177
#	203690
#	216235
#	229079
#
# Disc length: 3222 seconds
# Revision: 0
# Processed by: cddbd v1.5.2PL0 Copyright (c) Steve Scherf et al.
# Submitted via: dBpowerAMP V12.0
#
DISCID=170c9414
DTITLE=The Bailes Brothers - The Bailes Brothers 2010 - 20 Songs
DYEAR=2010
DGENRE=Country
TTITLE0=Dust on the Bible
TTITLE1=Avenue of Prayer
TTITLE2=Blessed Jesus Hold My Hand
TTITLE3=An Empty Mansion
TTITLE4=I Know Something Good About You
TTITLE5=Muddy Sea of Sin
TTITLE6=He Will Set Your Fields on Fire
TTITLE7=Sweeter Than the Flowers
TTITLE8=There's a Difference Between Religion and Salvation
TTITLE9=Future Holds Nothing
TTITLE10=All the Way
TTITLE11=Crying Over You
TTITLE12=I Wanna Be Loved Only By You
TTITLE13=Should I Let You Go
TTITLE14=Something Got a Hold of Me
TTITLE15=Somebody's Praying for You
TTITLE16=Bull Frog Boogie
TTITLE17=All the World is Lonely Now
TTITLE18=Down the Valley of the Shadow
TTITLE19=Remember Me
EXTD=
EXTT0=
EXTT1=
EXTT2=
EXTT3=
EXTT4=
EXTT5=
EXTT6=
EXTT7=
EXTT8=
EXTT9=
EXTT10=
EXTT11=
EXTT12=
EXTT13=
EXTT14=
EXTT15=
EXTT16=
EXTT17=
EXTT18=
EXTT19=
PLAYORDER=
